HIERARCHY
ROOT Hips
{
  OFFSET 0 0 0
  CHANNELS 6 Xposition Yposition Zposition Zrotation Yrotation Xrotation
  JOINT LeftThigh
  {
    OFFSET 8.409438 0 -5.917753
    CHANNELS 3 Zrotation Yrotation Xrotation
    JOINT LeftLeg
    {
      OFFSET 0 0 -42.358652
      CHANNELS 3 Zrotation Yrotation Xrotation
      JOINT LeftFoot
      {
        OFFSET 0 0 -39.357303
        CHANNELS 3 Zrotation Yrotation Xrotation
      }
    }
  }
  JOINT RightThigh
  {
    OFFSET -8.409438 0 -5.917753
    CHANNELS 3 Zrotation Yrotation Xrotation
    JOINT RightLeg
    {
      OFFSET 0 0 -42.358652
      CHANNELS 3 Zrotation Yrotation Xrotation
      JOINT RightFoot
      {
        OFFSET 0 0 -39.357303
        CHANNELS 3 Zrotation Yrotation Xrotation
      }
    }
  }
  JOINT SpineLow
  {
    OFFSET 0 0 4.719101
    CHANNELS 3 Zrotation Yrotation Xrotation
    JOINT SpineMid
    {
      OFFSET 0 0 12.899191
      CHANNELS 3 Zrotation Yrotation Xrotation
      JOINT Chest
      {
        OFFSET 0 0 12.899191
        CHANNELS 3 Zrotation Yrotation Xrotation
        JOINT LeftShoulder
        {
          OFFSET 7.550562 1.41573 9.438202
          CHANNELS 3 Zrotation Yrotation Xrotation
          JOINT LeftArm
          {
            OFFSET 9.155056 0 4.247191
            CHANNELS 3 Zrotation Yrotation Xrotation
            JOINT LeftForearm
            {
              OFFSET 0 0 25.771955
              CHANNELS 3 Zrotation Yrotation Xrotation
              JOINT LeftHand
              {
                OFFSET 0 0 25.197169
                CHANNELS 3 Zrotation Yrotation Xrotation
              }
            }
          }
        }
        JOINT RightShoulder
        {
          OFFSET -7.550562 1.41573 9.438202
          CHANNELS 3 Zrotation Yrotation Xrotation
          JOINT RightArm
          {
            OFFSET -9.155056 0 4.247191
            CHANNELS 3 Zrotation Yrotation Xrotation
            JOINT RightForearm
            {
              OFFSET 0 0 -25.771955
              CHANNELS 3 Zrotation Yrotation Xrotation
              JOINT RightHand
              {
                OFFSET 0 0 -25.197169
                CHANNELS 3 Zrotation Yrotation Xrotation
              }
            }
          }
        }
        JOINT Neck
        {
          OFFSET 0 0 15.101124
          CHANNELS 3 Zrotation Yrotation Xrotation
          JOINT Head
          {
            OFFSET 0 0 11.325843
            CHANNELS 3 Zrotation Yrotation Xrotation
            End Site
            {
              OFFSET 0 0 14.157303
            }
          }
        }
      }
    }
  }
}
MOTION
Frames: 16
Frame Time: 0.0
0.0  93.25843  0.0  12.042786  18.880503  -77.66506  -7.457927  -6.329531  -25.204148  -9.805716  5.189124  26.4624  2.266252  0.258533  3.192937  -32.725397  5.215857  -23.009548  -11.004981  18.691749  21.385617  4.333645  2.684901  -1.404249  2.539085  2.607122  -0.978309  6.858377  7.218992  -2.405094  6.858377  7.218992  -2.405094  3.79437  0.889705  12.868559  179.391945  18.14189  -158.899481  -0.142625  15.616014  105.095548  43.072005  -27.031397  18.630916  37.897719  -24.842974  21.751289  -151.252761  79.763305  -157.198606  -11.430358  -0.007118  -44.505226  79.492902  -25.695796  20.774447  -20.823228  -2.183731  -1.199188  -15.619876  -1.599129  -0.975113  
0.0  93.25843  0.0  12.071671  18.401009  -77.803926  -6.689205  -5.918232  -25.353255  -10.19929  5.429122  27.025639  2.212363  0.279194  3.1455  -32.310704  5.008175  -23.286498  -10.633278  19.436376  21.95785  4.426397  2.739141  -1.394673  2.581589  2.630695  -0.955152  6.977049  7.282337  -2.334532  6.977049  7.282337  -2.334532  3.970079  1.237357  12.578809  179.449144  18.020715  -158.335721  0.187376  14.81012  105.230485  43.117283  -27.105031  19.371171  37.935132  -24.859884  21.684609  -143.617368  80.18917  -149.77155  -13.968726  -3.328077  -46.317915  77.824274  -24.246245  22.276057  -20.931471  -2.30154  -1.214275  -15.701128  -1.686903  -0.990882  
0.0  93.25843  0.0  12.1423  17.750521  -77.993509  -5.777379  -5.160224  -25.374652  -10.77048  5.468543  27.534173  1.947482  0.237015  2.922324  -31.708069  4.852511  -23.527792  -10.156695  20.143236  22.568265  4.563179  2.918336  -1.449397  2.616214  2.667965  -0.924663  7.074741  7.381953  -2.243264  7.074741  7.381953  -2.243264  4.111565  1.609849  12.233755  179.503521  17.895012  -157.573644  0.383663  14.138559  105.244781  42.906731  -27.196776  20.214236  37.899584  -24.922689  21.698713  -135.968273  80.464195  -142.458085  -16.344167  -6.613215  -48.56759  76.259499  -22.510824  23.65119  -20.969319  -2.424439  -1.273514  -15.729764  -1.777104  -1.039733  
0.0  93.25843  0.0  12.211842  16.825386  -78.1634  -4.501044  -4.398903  -25.286528  -11.475582  5.46602  27.879809  1.803803  0.287256  2.845333  -30.933066  4.687  -23.875084  -9.698741  20.805642  23.162496  4.470879  3.056831  -1.518446  2.662437  2.715739  -0.911657  7.202197  7.512365  -2.19735  7.202197  7.512365  -2.19735  4.23036  1.987207  11.896837  179.493301  17.807078  -156.661273  0.359092  13.873701  105.150064  42.375378  -27.224887  21.260535  37.701628  -25.026533  21.80299  -128.880089  80.730211  -135.903052  -18.4179  -9.750815  -51.189289  74.88736  -20.415914  24.839093  -20.936198  -2.527849  -1.348378  -15.705255  -1.852265  -1.099357  
0.0  93.25843  0.0  12.311831  15.525925  -78.440691  -3.458654  -3.570436  -25.140633  -12.078444  5.57334  28.022423  1.921255  0.286276  2.922287  -30.015667  4.608233  -24.252587  -9.097364  21.419052  23.739815  4.890758  3.421701  -1.550539  2.717217  2.774217  -0.88913  7.354192  7.671127  -2.122988  7.354192  7.671127  -2.122988  4.435162  2.366875  11.563868  179.477645  17.708919  -155.530179  0.150643  13.98261  104.987334  41.589758  -27.160547  22.477455  37.441969  -25.089567  21.914557  -122.518877  81.12951  -130.354664  -20.186292  -12.633175  -54.124608  73.645861  -18.329225  25.721881  -20.733741  -2.616787  -1.475122  -15.554012  -1.915153  -1.196675  
0.0  93.25843  0.0  12.470202  13.896155  -78.813601  -2.176755  -2.796329  -24.588749  -12.429208  5.502907  28.087643  1.897609  0.344415  2.880945  -29.003315  4.614329  -24.638946  -8.41185  21.975464  24.246392  4.968209  3.516634  -1.588617  2.770495  2.841465  -0.866641  7.502128  7.853657  -2.047663  7.502128  7.853658  -2.047663  4.662674  2.741305  11.282043  179.521639  17.576138  -154.194533  -0.199899  14.286304  104.813735  40.73601  -27.022042  23.749592  37.095536  -25.109418  22.088431  -116.644289  81.744518  -125.654962  -21.742066  -15.340603  -57.237958  72.764226  -16.320997  26.256593  -20.331818  -2.652519  -1.616214  -15.253267  -1.938161  -1.302011  
0.0  93.25843  0.0  12.627434  11.863069  -79.183737  -0.945239  -2.110909  -23.990879  -12.526658  5.454485  28.054806  1.69761  0.373546  2.686503  -27.882295  4.604  -25.117134  -7.587777  22.401721  24.698484  5.363045  3.795832  -1.612147  2.829894  2.901881  -0.873149  7.663611  8.020904  -2.051529  7.663611  8.020904  -2.051529  4.790344  3.214491  11.064008  179.808346  17.490961  -152.720593  -0.550421  14.63057  104.747938  40.058736  -26.912784  24.962884  36.5867  -25.025621  22.448454  -110.969216  82.617354  -121.674257  -23.153  -17.96678  -60.353937  72.250662  -14.380475  26.456334  -19.71987  -2.578391  -1.737948  -14.794866  -1.880034  -1.388253  
0.0  93.25843  0.0  12.766257  9.354957  -79.610803  0.23317  -1.640015  -23.318177  -12.15791  5.436586  27.997127  1.776647  0.396643  2.6642  -26.573792  4.617515  -25.605067  -6.691814  22.649416  25.062762  5.495228  3.887804  -1.652056  2.905661  2.950562  -0.901634  7.8675  8.159164  -2.114653  7.8675  8.159165  -2.114653  4.745732  3.864018  10.955321  -179.547018  17.569954  -151.044235  -0.87664  14.855618  104.821991  39.647863  -26.929946  26.13845  35.897713  -24.816172  23.024652  -104.836468  83.704139  -117.864028  -24.363888  -20.558942  -63.36603  71.878021  -12.457203  26.249236  -18.890977  -2.413353  -1.802102  -14.173389  -1.756299  -1.427673  
0.0  93.25843  0.0  12.934435  6.412336  -80.134987  1.34947  -1.371487  -22.478294  -11.446186  5.510777  27.754958  1.916843  0.417581  2.653825  -25.091177  4.736647  -26.087948  -5.691672  22.676466  25.339355  5.697483  4.03511  -1.647538  2.987312  2.997822  -0.940334  8.086237  8.295089  -2.204902  8.086237  8.295089  -2.204902  4.522764  4.671968  10.957143  -178.56512  17.814739  -149.150369  -1.027279  14.844689  105.11767  39.609275  -27.148894  27.086377  35.074326  -24.554343  23.663101  -95.945613  85.008847  -112.018631  -25.239841  -23.085377  -66.232629  71.595121  -10.595499  25.664021  -17.841735  -2.230817  -1.787451  -13.386263  -1.62257  -1.407029  
0.0  93.25843  0.0  13.137714  3.016051  -80.727458  2.518165  -1.160702  -21.472749  -10.473421  5.52028  27.383936  2.284332  0.488175  2.735744  -23.29542  4.954709  -26.535728  -4.641695  22.511674  25.539541  5.824768  4.100487  -1.651128  3.064227  3.06028  -0.985082  8.290889  8.473293  -2.310186  8.29089  8.473293  -2.310186  4.32315  5.353669  10.854367  -177.475744  18.141553  -147.206878  -1.130348  14.6707  105.546645  39.823818  -27.524865  28.037169  34.241849  -24.115952  24.138352  -75.311263  86.448906  -95.115577  -25.578338  -25.548166  -69.108988  71.249239  -8.62296  24.792619  -16.535443  -2.133729  -1.718681  -12.40626  -1.555148  -1.347811  
0.0  93.25843  0.0  13.41167  -0.874064  -81.428959  3.833178  -0.897451  -20.266525  -9.186338  5.325608  26.932746  2.521591  0.622011  2.750268  -21.150488  5.30781  -26.912778  -3.541298  22.165735  25.634467  5.973347  4.165278  -1.625143  3.169367  3.135793  -1.026135  8.573277  8.687767  -2.399555  8.573277  8.687766  -2.399555  4.030589  5.88885  10.528184  -176.418167  18.586243  -145.372235  -1.605643  14.325766  106.02255  39.81473  -27.886201  29.28869  33.252906  -23.607645  24.502452  -30.111885  87.308856  -53.978226  -25.320821  -28.049585  -72.216063  70.808885  -6.454862  23.957005  -15.061061  -2.0901  -1.611299  -11.300141  -1.528972  -1.260794  
0.0  93.25843  0.0  13.707921  -5.257254  -82.170586  5.460517  -0.566731  -18.9101  -7.798634  4.975546  26.28798  2.838592  0.783053  2.826878  -18.645699  5.708688  -27.267911  -2.491646  21.654616  25.616915  6.081227  4.16777  -1.59706  3.305333  3.213557  -1.087826  8.937465  8.912409  -2.540354  8.937465  8.912409  -2.540354  3.630171  6.2864  10.070875  -175.363332  19.259292  -143.636909  -2.432018  13.883241  106.710528  39.415136  -28.255937  30.531099  32.292353  -23.249816  24.701163  21.666745  86.383239  -6.115748  -24.385125  -30.5693  -75.667593  70.294254  -4.22865  23.570078  -13.422308  -2.073497  -1.440188  -10.070582  -1.52437  -1.126236  
0.0  93.25843  0.0  14.044844  -10.090303  -82.970906  7.472693  -0.121907  -17.365413  -6.468083  4.538662  25.406578  3.233485  0.91467  2.907729  -15.896352  6.155532  -27.680227  -1.468084  20.984317  25.539305  6.230845  4.132916  -1.5396  3.476831  3.280171  -1.185634  9.394296  9.113516  -2.775871  9.394297  9.113515  -2.775871  3.07165  6.582937  9.647575  -174.209546  20.290892  -141.985156  -3.216362  13.897018  107.826838  39.21358  -28.715206  31.207626  31.213411  -22.816886  25.059772  48.164332  84.092917  16.570781  -22.858153  -32.99536  -79.42977  69.666297  -2.251045  23.660546  -11.650855  -2.045728  -1.168773  -8.741162  -1.512672  -0.915903  
0.0  93.25843  0.0  14.438161  -15.231334  -83.798848  9.567084  0.297347  -15.734857  -4.905775  4.039289  24.312534  3.686808  0.997904  3.0006  -13.138666  6.587448  -28.184277  -0.425072  20.1581  25.366496  6.436872  4.030696  -1.433596  3.661592  3.316816  -1.338251  9.880041  9.242707  -3.16315  9.880041  9.242708  -3.16315  2.352833  6.960502  9.512033  -172.896902  21.915478  -140.366873  -4.013852  14.600977  109.284196  39.357257  -29.370049  31.416738  29.925899  -22.464375  25.635907  63.938387  81.324217  28.694699  -20.740895  -35.08217  -83.438309  68.753481  -0.476185  23.838336  -9.727996  -1.951836  -0.789561  -7.297827  -1.451748  -0.623385  
0.0  93.25843  0.0  14.914661  -20.650154  -84.705121  11.756848  0.710272  -13.962739  -3.030083  3.438658  22.992329  4.182561  1.033901  3.139091  -10.439102  7.004615  -28.743416  0.671577  19.139989  25.077084  6.719762  3.896108  -1.291109  3.846674  3.330656  -1.524889  10.361932  9.317091  -3.646414  10.361933  9.317092  -3.646414  1.568827  7.42107  9.631519  -171.401136  24.179521  -138.745867  -4.81174  15.703735  110.995292  39.780856  -30.353  31.404672  28.513743  -22.083032  26.297288  74.42891  78.135695  35.665121  -18.066233  -36.564072  -87.613714  67.660405  1.068073  23.646506  -7.604099  -1.816056  -0.402157  -5.703795  -1.357288  -0.324255  
0.0  93.25843  0.0  15.490614  -26.21563  -85.798683  14.019552  1.056185  -11.986326  -0.924133  2.827286  21.498066  4.664278  1.01057  3.255169  -7.995377  7.373928  -29.141541  2.203527  17.730837  24.591119  6.646476  3.69862  -1.07166  4.017687  3.310682  -1.725651  10.803886  9.303417  -4.175259  10.803887  9.303417  -4.175258  0.699441  7.926327  10.023228  -169.550344  27.056123  -137.051214  -5.562487  17.005619  113.153014  40.64541  -31.505449  31.266288  26.957525  -21.540565  26.928882  81.58077  74.538041  39.457127  -14.734495  -37.438816  -92.001216  66.70873  2.371667  22.910543  -5.275321  -1.604368  -0.04012  -3.956338  -1.203036  -0.043944  
